<svg class="svg-icon" style="width: 1em; height: 1em;vertical-align: middle;fill: currentColor;overflow: hidden;" viewBox="0 0 1024 1024" version="1.1" xmlns="http://www.w3.org/2000/svg"><path d="M864 160l0 704L160 864 160 160 864 160M896 128 128 128l0 768 768 0L896 128 896 128z"  /><path d="M384 304l384 0 0 32-384 0 0-32Z"  /><path d="M384 496l384 0 0 32-384 0 0-32Z"  /><path d="M384 688l384 0 0 32-384 0 0-32Z"  /><path d="M288 320m-32 0a16 16 0 1 0 64 0 16 16 0 1 0-64 0Z"  /><path d="M288 512m-32 0a16 16 0 1 0 64 0 16 16 0 1 0-64 0Z"  /><path d="M288 704m-32 0a16 16 0 1 0 64 0 16 16 0 1 0-64 0Z"  /></svg>