<svg class="svg-icon" style="width: 1em; height: 1em;vertical-align: middle;fill: currentColor;overflow: hidden;" viewBox="0 0 1024 1024" version="1.1" xmlns="http://www.w3.org/2000/svg"><path d="M184 512m-56 0a56 56 0 1 0 112 0 56 56 0 1 0-112 0Z"  /><path d="M184 264m-56 0a56 56 0 1 0 112 0 56 56 0 1 0-112 0Z"  /><path d="M184 760m-56 0a56 56 0 1 0 112 0 56 56 0 1 0-112 0Z"  /><path d="M864 480H383c-17.6 0-32 14.4-32 32s14.4 32 32 32H864c17.6 0 32-14.4 32-32s-14.4-32-32-32z m0 248H383c-17.6 0-32 14.4-32 32s14.4 32 32 32H864c17.6 0 32-14.4 32-32s-14.4-32-32-32zM383 296H864c17.6 0 32-14.4 32-32s-14.4-32-32-32H383c-17.6 0-32 14.4-32 32s14.4 32 32 32z"  /></svg>